<?xml version="1.0" encoding="utf-8"?>
<!-- Generator: Adobe Illustrator 21.0.0, SVG Export Plug-In . SVG Version: 6.00 Build 0)  -->
<svg version="1.1" id="Layer_1" xmlns="http://www.w3.org/2000/svg" xmlns:xlink="http://www.w3.org/1999/xlink" x="0px" y="0px"
	 viewBox="0 0 86.8 94" style="enable-background:new 0 0 86.8 94;" xml:space="preserve">
<style type="text/css">
	.st0{fill:#5BBEBD;}
</style>
<g>
	<path class="st0" d="M44.4,9.9c20.4,0,37.1,16.6,37.1,37.1S64.8,84.1,44.4,84.1S7.3,67.4,7.3,47S24,9.9,44.4,9.9 M44.4,5.7
		C21.6,5.7,3.1,24.2,3.1,47s18.5,41.3,41.3,41.3S85.7,69.8,85.7,47S67.2,5.7,44.4,5.7L44.4,5.7z"/>
</g>
<g>
	<g>
		<path class="st0" d="M27.5,48.6l10.2,6.6c0.3,0.2,0.7,0.3,1.1,0.3c0.6,0,1.3-0.3,1.7-0.9c0.6-0.9,0.3-2.1-0.6-2.7l-10.2-6.6
			c-0.9-0.6-2.1-0.3-2.7,0.6C26.4,46.8,26.6,48,27.5,48.6z"/>
		<path class="st0" d="M63.5,61.3h-6c1.9-2.8,3.1-6.2,3.1-9.9c0-7.5-4.8-14-11.4-16.5l2.8-4.4c0.7-1,0.9-2.3,0.6-3.5
			c-0.3-1.2-1-2.3-2-3c-2.2-1.4-5.1-0.8-6.5,1.4L31.8,44.5l7.9,5.1l5.6-8.7c4.8,1,8.4,5.3,8.4,10.5c0,4.5-2.8,8.4-6.7,9.9H26.2
			c-2.2,0-3.9,1.8-3.9,3.9c0,2.2,1.8,3.9,3.9,3.9h37.3c2.2,0,3.9-1.8,3.9-3.9C67.5,63.1,65.7,61.3,63.5,61.3z"/>
	</g>
</g>
</svg>
