<?xml version="1.0" encoding="utf-8"?>
<!-- Generator: Adobe Illustrator 21.0.0, SVG Export Plug-In . SVG Version: 6.00 Build 0)  -->
<svg version="1.1" id="Layer_1" xmlns="http://www.w3.org/2000/svg" xmlns:xlink="http://www.w3.org/1999/xlink" x="0px" y="0px"
	 viewBox="0 0 86.8 94" style="enable-background:new 0 0 86.8 94;" xml:space="preserve">
<style type="text/css">
	.st0{fill:#2975C9;}
</style>
<g>
	<path class="st0" d="M43.4,9.4C64.2,9.4,81,26.2,81,47S64.2,84.6,43.4,84.6S5.8,67.8,5.8,47S22.6,9.4,43.4,9.4 M43.4,5.7
		C20.6,5.7,2.1,24.2,2.1,47s18.5,41.3,41.3,41.3S84.7,69.8,84.7,47S66.2,5.7,43.4,5.7L43.4,5.7z"/>
</g>
<g>
	<g>
		<path class="st0" d="M50.3,41.2c-2.6,0-4.7,2.1-4.7,4.7s2.1,4.7,4.7,4.7s4.7-2.1,4.7-4.7C55,43.3,52.9,41.2,50.3,41.2z M50.3,48.2
			c-1.3,0-2.4-1-2.4-2.4c0-1.3,1-2.4,2.4-2.4c1.3,0,2.4,1,2.4,2.4C52.7,47.2,51.6,48.2,50.3,48.2z"/>
	</g>
</g>
<g>
	<g>
		<path class="st0" d="M58,63.9L55,52.4c-0.3-1-1.2-1.8-2.3-1.8h-2.4H48c-1,0-2,0.7-2.3,1.8l-0.4,1.8l-2-11.2
			c-0.2-1.1-1.2-1.9-2.4-1.9h-9.5c-1.1,0-2.1,0.8-2.4,1.9l-2.4,13c-0.1,0.7,0.1,1.4,0.5,1.9c0.4,0.5,1.1,0.9,1.8,0.9h1.5l0.9,10.8
			c0.1,1.2,1.1,2.2,2.4,2.2h4.7c1.2,0,2.3-1,2.4-2.2l0.9-10.8h1.5c0.3,0,0.6-0.1,0.9-0.2l-0.8,3.1c-0.2,0.7,0,1.5,0.4,2
			c0.4,0.6,1.1,0.9,1.8,0.9v4.7c0,1.3,1,2.4,2.4,2.4h4.7c1.3,0,2.4-1,2.4-2.4v-4.7C55.5,64.8,57.5,64.5,58,63.9 M39.5,56.5l-1,13
			h-4.7l-1-13H29l2.4-13h9.4l2.4,13C43.2,56.5,39.5,56.5,39.5,56.5z M52.7,62.5v7.1H48v-7.1h-2.4L48,53h4.7l2.4,9.4H52.7L52.7,62.5z
			"/>
	</g>
</g>
<g>
	<g>
		<path class="st0" d="M36.1,24.6c-3.9,0-7.1,3.2-7.1,7.1s3.2,7.1,7.1,7.1c3.9,0,7.1-3.2,7.1-7.1S40,24.6,36.1,24.6z M36.1,36.5
			c-2.6,0-4.7-2.1-4.7-4.7s2.1-4.7,4.7-4.7s4.7,2.1,4.7,4.7S38.7,36.5,36.1,36.5z"/>
	</g>
</g>
<g>
	<g>
		<rect x="49" y="30.2" transform="matrix(0.8191 -0.5736 0.5736 0.8191 -7.7533 38.7382)" class="st0" width="17" height="2.8"/>
	</g>
</g>
<g>
	<g>
		<rect x="48.1" y="29.8" transform="matrix(0.698 -0.7161 0.7161 0.698 -9.299 45.6656)" class="st0" width="2.8" height="8.1"/>
	</g>
</g>
</svg>
