<?xml version="1.0" encoding="utf-8"?>
<!-- Generator: Adobe Illustrator 21.0.0, SVG Export Plug-In . SVG Version: 6.00 Build 0)  -->
<svg version="1.1" id="Layer_1" xmlns="http://www.w3.org/2000/svg" xmlns:xlink="http://www.w3.org/1999/xlink" x="0px" y="0px"
	 viewBox="0 0 86.8 94" style="enable-background:new 0 0 86.8 94;" xml:space="preserve">
<style type="text/css">
	.st0{fill:#2975C9;}
</style>
<g>
	<path class="st0" d="M43.4,9.4C64.2,9.4,81,26.2,81,47S64.2,84.6,43.4,84.6S5.8,67.8,5.8,47S22.6,9.4,43.4,9.4 M43.4,5.7
		C20.6,5.7,2.1,24.2,2.1,47s18.5,41.3,41.3,41.3S84.7,69.8,84.7,47S66.2,5.7,43.4,5.7L43.4,5.7z"/>
</g>
<g>
	<path class="st0" d="M43.4,16.4c-9.4,0-17.1,7.7-17.1,17.1c0,3.8,1.3,7.4,3.6,10.4c-2.7,3.9-4.2,8.7-4.2,13.8
		c0,11.8,8,21.4,17.7,21.4c9.8,0,17.7-9.6,17.7-21.4c0-5.1-1.5-10-4.2-13.8c2.3-3,3.6-6.6,3.6-10.4C60.5,24.1,52.8,16.4,43.4,16.4z
		 M53.7,44.9c2.8,3.4,4.3,8,4.3,12.9c0,10-6.5,18.2-14.6,18.2c-8,0-14.6-8.2-14.6-18.2c0-4.9,1.5-9.4,4.3-12.9l0.8-1.1l-0.9-1
		c-2.3-2.6-3.6-5.9-3.6-9.3c0-7.7,6.2-13.9,13.9-13.9s13.9,6.2,13.9,13.9c0,3.4-1.3,6.7-3.6,9.3l-0.9,1L53.7,44.9z"/>
	<path class="st0" d="M55.7,33.5c0-1.9-1.4-3.5-3.2-3.9c-1.5-3.6-5.1-6.1-9.1-6.1s-7.6,2.4-9.1,6.1c-1.8,0.4-3.2,2-3.2,3.9
		c0,1.9,1.4,3.5,3.2,3.9c1.5,3.6,5.1,6.1,9.1,6.1s7.6-2.4,9.1-6.1C54.3,37,55.7,35.4,55.7,33.5z M51.8,34.3l-1.5-0.2l-0.4,1.3
		c-0.8,2.9-3.5,4.9-6.5,4.9s-5.7-2-6.5-4.9l-0.4-1.3l-1.4,0.2H35c-0.4,0-0.8-0.3-0.8-0.8c0-0.4,0.4-0.8,0.8-0.8l1.5,0.2l0.4-1.3
		c0.8-2.9,3.5-4.9,6.5-4.9s5.7,2,6.5,4.9l0.4,1.3l1.4-0.2h0.1c0.4,0,0.8,0.3,0.8,0.8C52.5,33.9,52.2,34.3,51.8,34.3z"/>
	<path class="st0" d="M43.4,34.1c-2,0-2,3.2,0,3.2S45.4,34.1,43.4,34.1z"/>
</g>
</svg>
