<?xml version="1.0" encoding="utf-8"?>
<!-- Generator: Adobe Illustrator 21.0.0, SVG Export Plug-In . SVG Version: 6.00 Build 0)  -->
<svg version="1.1" id="Layer_1" xmlns="http://www.w3.org/2000/svg" xmlns:xlink="http://www.w3.org/1999/xlink" x="0px" y="0px"
	 viewBox="0 0 86.8 94" style="enable-background:new 0 0 86.8 94;" xml:space="preserve">
<style type="text/css">
	.st0{fill:#2975C9;}
</style>
<g>
	<path class="st0" d="M43.4,9.4C64.2,9.4,81,26.2,81,47S64.2,84.6,43.4,84.6S5.8,67.8,5.8,47S22.6,9.4,43.4,9.4 M43.4,5.7
		C20.6,5.7,2.1,24.2,2.1,47s18.5,41.3,41.3,41.3S84.7,69.8,84.7,47S66.2,5.7,43.4,5.7L43.4,5.7z"/>
</g>
<g>
	<g>
		<path class="st0" d="M35.5,25C35.4,25,35.4,25,35.5,25 M35,25.1l-7.5,2.8c-0.2,0.1-0.3,0.3-0.2,0.5l3.3,5.8
			c0.1,0.2,0.4,0.4,0.6,0.5L32,35c-7.9,1.5-13.9,8.4-13.9,16.8c0,9.4,7.7,17.1,17.1,17.1c2.9,0,5.7-0.7,8.1-2.1
			c2.5,1.4,5.3,2.2,8.3,2.2c9.4,0,17.1-7.7,17.1-17.1c0-9.4-7.7-17.1-17.1-17.1c-2.9,0-5.7,0.7-8.1,2.1c-1.5-0.8-3.1-1.5-4.8-1.8
			l0.9-0.3c0.2-0.1,0.5-0.3,0.6-0.5l3.3-5.8c0.1-0.2,0-0.5-0.2-0.5 M48.6,51.8c0,4.3-2.1,8.2-5.3,10.6c-3.1-2.5-5.1-6.2-5.1-10.5
			c0-4.3,2.1-8.2,5.3-10.6C46.6,43.8,48.6,47.6,48.6,51.8z M35.2,65.2c-7.4,0-13.4-6-13.4-13.4c0-7.4,6-13.4,13.4-13.4
			c1.7,0,3.4,0.3,4.9,0.9c-3.4,3.1-5.6,7.6-5.6,12.6c0,4.9,2.1,9.3,5.4,12.4C38.4,64.9,36.8,65.2,35.2,65.2z M51.6,65.3
			c-1.7,0-3.4-0.3-4.9-0.9c3.4-3.1,5.6-7.6,5.6-12.6c0-4.9-2.1-9.3-5.4-12.4c1.5-0.6,3.1-0.9,4.7-0.9c7.4,0,13.4,6,13.4,13.4
			C65,59.3,59,65.3,51.6,65.3z"/>
	</g>
</g>
</svg>
