<?xml version="1.0" encoding="utf-8"?>
<!-- Generator: Adobe Illustrator 21.0.0, SVG Export Plug-In . SVG Version: 6.00 Build 0)  -->
<svg version="1.1" id="Layer_1" xmlns="http://www.w3.org/2000/svg" xmlns:xlink="http://www.w3.org/1999/xlink" x="0px" y="0px"
	 viewBox="0 0 86.8 94" style="enable-background:new 0 0 86.8 94;" xml:space="preserve">
<style type="text/css">
	.st0{fill:#2975C9;}
</style>
<g>
	<path class="st0" d="M43.4,9.4C64.2,9.4,81,26.2,81,47S64.2,84.6,43.4,84.6S5.8,67.8,5.8,47S22.6,9.4,43.4,9.4 M43.4,5.7
		C20.6,5.7,2.1,24.2,2.1,47s18.5,41.3,41.3,41.3S84.7,69.8,84.7,47S66.2,5.7,43.4,5.7L43.4,5.7z"/>
</g>
<g>
	<g>
		<rect x="44.8" y="31.3" class="st0" width="12.8" height="2.1"/>
	</g>
</g>
<g>
	<g>
		<rect x="44.8" y="36.6" class="st0" width="12.8" height="2.1"/>
	</g>
</g>
<g>
	<g>
		<rect x="44.8" y="41.9" class="st0" width="12.8" height="2.1"/>
	</g>
</g>
<g>
	<g>
		<rect x="44.8" y="47.2" class="st0" width="12.8" height="2.1"/>
	</g>
</g>
<g>
	<g>
		<rect x="44.8" y="52.5" class="st0" width="12.8" height="2.1"/>
	</g>
</g>
<g>
	<g>
		<rect x="29.8" y="57.8" class="st0" width="27.8" height="2.1"/>
	</g>
</g>
<g>
	<g>
		<path class="st0" d="M60,53.4c0.5-0.5,1.1-1.7,1.8-1.9V24.9H25.5v42.7H37h14.8h10.1V51.1l-2.1,2.1v12.2h-8.3H37.1h-9.4V27h32v26.9
			L60,53.4z"/>
	</g>
</g>
<g>
	<g>
		<path class="st0" d="M36.6,28.7c-2.2,0-3.9,1.8-3.9,3.9s1.8,3.9,3.9,3.9c2.2,0,3.9-1.8,3.9-3.9S38.7,28.7,36.6,28.7z M36.6,34.6
			c-1.1,0-2-0.9-2-2s0.9-2,2-2s2,0.9,2,2S37.6,34.6,36.6,34.6z"/>
	</g>
</g>
<g>
	<g>
		<path class="st0" d="M41.7,43.1l-1.2-5c-0.2-0.9-1-1.5-1.9-1.5h-2h-2c-0.9,0-1.7,0.6-1.9,1.5l-0.4,1.5c0,0-1.2,3.8-0.9,3.7
			l-0.7,2.6c-0.1,0.6,0,1.2,0.4,1.7c0.4,0.5,0.9,0.8,1.6,0.8v3.9c0,1.1,0.9,2,2,2h3.9c1.1,0,2-0.9,2-2v-3.9c0.3,0,0.7-0.1,1-0.2
			c0.1,0.1,1-0.3,1-1.3C42.5,45.4,41.7,43.1,41.7,43.1z M38.5,46.4v5.9h-3.9v-5.9h-2l2-7.9h3.9l2,7.9L38.5,46.4L38.5,46.4z
			 M40.5,48.4c0.3,0,1.2-0.3,1.5-0.4c0.1,0.1-0.3-0.6-0.3-1.5"/>
	</g>
</g>
<g>
	<g>
		<rect x="20" y="13" width="0" height="0"/>
	</g>
</g>
</svg>
