<?xml version="1.0" encoding="utf-8"?>
<!-- Generator: Adobe Illustrator 21.0.0, SVG Export Plug-In . SVG Version: 6.00 Build 0)  -->
<svg version="1.1" id="Layer_1" xmlns="http://www.w3.org/2000/svg" xmlns:xlink="http://www.w3.org/1999/xlink" x="0px" y="0px"
	 viewBox="0 0 86.8 94" style="enable-background:new 0 0 86.8 94;" xml:space="preserve">
<style type="text/css">
	.st0{fill:#2975C9;}
</style>
<g>
	<path class="st0" d="M43.4,9.4C64.2,9.4,81,26.2,81,47S64.2,84.6,43.4,84.6S5.8,67.8,5.8,47S22.6,9.4,43.4,9.4 M43.4,5.7
		C20.6,5.7,2.1,24.2,2.1,47s18.5,41.3,41.3,41.3S84.7,69.8,84.7,47S66.2,5.7,43.4,5.7L43.4,5.7z"/>
</g>
<g>
	<g>
		<path class="st0" d="M53.4,37.6c-3,0-5.4,2.4-5.4,5.4c0,3,2.4,5.4,5.4,5.4s5.4-2.4,5.4-5.4C58.8,40,56.4,37.6,53.4,37.6z
			 M53.4,45.7c-1.5,0-2.7-1.2-2.7-2.7c0-1.5,1.2-2.7,2.7-2.7s2.7,1.2,2.7,2.7C56.1,44.5,54.9,45.7,53.4,45.7z"/>
	</g>
</g>
<g>
	<g>
		<path class="st0" d="M62.2,63.6l-3.5-13.1c-0.3-1.2-1.4-2.1-2.6-2.1h-2.7h-2.7c-1.2,0-2.3,0.8-2.6,2.1l-0.5,2.1l-2.3-12.8
			c-0.2-1.3-1.4-2.2-2.7-2.2H31.7c-1.3,0-2.4,0.9-2.7,2.2l-2.7,14.9c-0.1,0.8,0.1,1.6,0.6,2.2c0.5,0.6,1.3,1,2.1,1h1.7l1,12.4
			c0.1,1.4,1.3,2.5,2.7,2.5h5.4c1.4,0,2.6-1.1,2.7-2.5l1-12.4h1.7c0.3,0,0.7-0.1,1-0.2l-0.9,3.6c-0.2,0.8,0,1.7,0.5,2.3
			c0.5,0.7,1.3,1,2.1,1v5.4c0,1.5,1.2,2.7,2.7,2.7h5.4c1.5,0,2.7-1.2,2.7-2.7v-5.4C59.3,64.7,61.6,64.3,62.2,63.6 M41,55.2
			l-1.2,14.9h-5.4l-1.2-14.9H29l2.7-14.9h10.8l2.7,14.9H41z M56.1,62v8.1h-5.4V62H48l2.7-10.8h5.4L58.8,62L56.1,62L56.1,62z
			 M61.5,62"/>
	</g>
</g>
<g>
	<g>
		<path class="st0" d="M37.1,18.6c-4.5,0-8.1,3.7-8.1,8.1s3.7,8.1,8.1,8.1c4.5,0,8.1-3.7,8.1-8.1S41.6,18.6,37.1,18.6z M37.1,32.2
			c-3,0-5.4-2.4-5.4-5.4s2.4-5.4,5.4-5.4c3,0,5.4,2.4,5.4,5.4S40.1,32.2,37.1,32.2z"/>
	</g>
</g>
</svg>
