<?xml version="1.0" encoding="utf-8"?>
<!-- Generator: Adobe Illustrator 21.0.0, SVG Export Plug-In . SVG Version: 6.00 Build 0)  -->
<svg version="1.1" id="Layer_1" xmlns="http://www.w3.org/2000/svg" xmlns:xlink="http://www.w3.org/1999/xlink" x="0px" y="0px"
	 viewBox="0 0 86.8 94" style="enable-background:new 0 0 86.8 94;" xml:space="preserve">
<style type="text/css">.st0{fill:#2775cb;}</style>
<g>
	<path class="st0" d="M69.2,29.8c-4.4-1.6-8,1.2-11,4.2c-0.5,0.5-1.4,1.4-2.5,2.6c-3.9,0-10.2,0-13.4,0V21.5v-0.1
		c0-0.9-0.6-1.7-1.5-1.9c-1.4-0.4-2.9-0.5-4.2-0.5c-9.6,0-17.4,7.8-17.4,17.4c0,5.5,2.7,10.7,7,13.9c4.2,3.4,9,3.5,12.4,3.5
		c-0.8,0.8-1.5,1.5-2.2,2.3c-1.4-0.9-3.1-1.4-4.8-1.4c-5,0-9.1,4.1-9.1,9.1s4.1,9.1,9.1,9.1s9.1-4.1,9.1-9.1c0-1.8-0.5-3.5-1.4-4.9
		c1.1-1.1,2.3-2.3,3.5-3.5c0.1,0.1,0.1,0.1,0.2,0.2l3.2,3.2c-0.9,1.4-1.5,3.1-1.5,5c0,5,4.1,9.1,9.1,9.1s9.1-4.1,9.1-9.1
		s-4.1-9.1-9.1-9.1c-1.7,0-3.4,0.5-4.7,1.3l-2.2-2.2h4.4c6.1,0,11-5,11-11.1c0-1.6,0-2.7-0.2-3.6c-0.2-0.9-0.6-1.5-1.2-2
		c0.1-0.1,0.2-0.2,0.2-0.2c3.7-3.7,5.5-3.8,6.8-3.3c0.8,0.3,1.2,1.2,1.2,1.8c0,0.5-0.3,0.6-0.4,0.7c-0.3,0.1-0.5,0.2-0.6,0.2
		c-0.3-0.9-1.3-1.5-2.3-1.3c-1.1,0.2-1.7,1.3-1.5,2.4c0.1,0.3,0.4,1.7,1.9,2.4c0.8,0.4,2.1,0.8,4,0c1.8-0.7,3-2.4,3-4.4
		C73.1,33,71.5,30.7,69.2,29.8z M31.5,68.8c-2.8,0-5.1-2.3-5.1-5.1c0-2.8,2.3-5.1,5.1-5.1c0.7,0,1.3,0.1,1.9,0.4
		c-1.5,1.5-2.5,2.5-3,3c-0.5,0.4-0.8,0.9-0.8,1.6c0,1.1,0.9,2,2,2c0.5,0,0.9-0.2,1.3-0.5l0,0c0,0,1.3-1.3,3.3-3.3
		c0.2,0.6,0.4,1.2,0.4,1.9C36.6,66.5,34.4,68.8,31.5,68.8z M49.1,61.6l3.4,3.4c0.4,0.4,0.9,0.6,1.4,0.6s1-0.2,1.4-0.6
		c0.8-0.8,0.8-2,0-2.8L52,58.9c0.5-0.2,1.1-0.3,1.8-0.3c2.8,0,5.1,2.3,5.1,5.1s-2.3,5.1-5.1,5.1s-5.1-2.3-5.1-5.1
		C48.6,62.9,48.8,62.3,49.1,61.6z M42.6,49.7H39c-3.1,0-7,0-10.4-2.7c-3.4-2.5-5.5-6.5-5.5-10.8c0-7.4,6-13.4,13.4-13.4
		c0.6,0,1.2,0,1.8,0.1v15.6c0,0.5,0.2,1,0.6,1.4c0.4,0.4,0.9,0.6,1.4,0.6l0,0c0,0,6.1,0,11.4,0C48.9,43.4,45.7,46.6,42.6,49.7z
		 M51.2,49.7h-2.9c3.3-3.4,6.6-6.6,9.1-9.1c0.3,0,0.6,0,0.9,0c0,0.5,0,1.3,0,2.1C58.2,46.6,55.1,49.7,51.2,49.7z"/>
</g>
<g>
	<path class="st0" d="M43.4,9.4C64.2,9.4,81,26.2,81,47S64.2,84.6,43.4,84.6S5.8,67.8,5.8,47S22.6,9.4,43.4,9.4 M43.4,5.7
		C20.6,5.7,2.1,24.2,2.1,47s18.5,41.3,41.3,41.3S84.7,69.8,84.7,47S66.2,5.7,43.4,5.7L43.4,5.7z"/>
</g>
</svg>
